<svg width="1280" height="305" viewBox="0 0 1280 305" fill="none" xmlns="http://www.w3.org/2000/svg">
<path d="M-7.00024 14.6351C80.0066 3.9684 297.675 -10.9649 472.292 14.6351C690.563 46.6351 906.823 154.135 1087.37 33.6351C1138.51 -0.489666 1230.71 13.3017 1280.5 27.6351" stroke="url(#paint0_linear_1536_7594)"/>
<path d="M-2.47388 136.5C90.9034 95.5 327.549 145.432 545.217 243.832C817.302 366.832 935.49 266.332 1018.98 243.832C1097.77 223.998 1261.99 241.4 1280.5 261" stroke="url(#paint1_linear_1536_7594)"/>
<path d="M-6.6739 21.7981C80.7921 8.94505 299.828 -1.31296 477.548 29.5343C699.698 68.0934 908.889 160.601 1082.44 47.1648C1135.57 14.0702 1232.96 28.1218 1280.5 42.8347" stroke="url(#paint2_linear_1536_7594)"/>
<path d="M-6.35335 29.5084C81.5637 14.5078 301.943 8.84228 482.711 44.8438C708.672 89.8458 910.919 167.627 1077.6 61.1291C1132.69 29.0464 1235.18 43.3536 1280.5 58.4394" stroke="url(#paint3_linear_1536_7594)"/>
<path d="M-6.03859 37.5226C82.3213 20.4131 304.02 19.2572 487.781 60.3201C717.483 111.649 912.912 174.969 1072.85 75.2845C1129.85 44.1953 1237.35 58.7535 1280.5 74.2055" stroke="url(#paint4_linear_1536_7594)"/>
<path d="M-5.72992 45.6699C83.0648 26.4902 306.059 29.7611 492.758 75.7924C726.132 133.331 914.868 182.456 1068.18 89.46C1127.07 59.3462 1239.49 74.1508 1280.5 89.9622" stroke="url(#paint5_linear_1536_7594)"/>
<path d="M-5.42679 53.8423C83.7945 32.6312 308.059 40.2462 497.642 91.1528C734.62 154.786 916.788 189.981 1063.6 103.548C1124.34 74.3913 1241.58 89.4377 1280.5 105.602" stroke="url(#paint6_linear_1536_7594)"/>
<path d="M-5.12946 61.9743C84.5104 38.7705 310.022 50.6466 502.432 106.336C742.946 175.947 918.671 197.478 1059.1 117.483C1121.67 89.2648 1243.64 104.548 1280.5 121.058" stroke="url(#paint7_linear_1536_7594)"/>
<path d="M-4.83788 70.0253C85.2123 44.8676 311.946 60.922 507.13 121.301C751.109 196.774 920.518 204.906 1054.7 131.224C1119.04 103.926 1245.65 119.442 1280.5 136.292" stroke="url(#paint8_linear_1536_7594)"/>
<path d="M-4.55208 77.9701C85.9003 50.8971 313.832 71.0471 511.734 136.022C759.112 217.241 922.328 212.241 1050.38 144.746C1116.47 118.351 1247.63 134.095 1280.5 151.277" stroke="url(#paint9_linear_1536_7594)"/>
<path d="M-4.27208 85.7921C86.5744 56.8427 315.68 81.0053 516.245 150.484C766.952 237.332 924.101 219.465 1046.15 158.032C1113.95 132.521 1249.56 148.488 1280.5 165.996" stroke="url(#paint10_linear_1536_7594)"/>
<path d="M-3.99786 93.4805C87.2346 62.6934 317.49 90.7858 520.664 164.675C774.63 257.036 925.838 226.567 1042.01 171.072C1111.48 146.427 1251.46 162.613 1280.5 180.44" stroke="url(#paint11_linear_1536_7594)"/>
<path d="M-3.7294 101.028C87.8808 68.4416 319.262 100.381 524.989 178.588C782.147 276.346 927.538 233.541 1037.95 183.858C1109.07 160.06 1253.31 176.461 1280.5 194.6" stroke="url(#paint12_linear_1536_7594)"/>
<path d="M-3.46674 108.428C88.5132 74.0818 320.996 109.785 529.22 192.217C789.501 295.256 929.202 240.381 1033.98 196.384C1106.7 173.416 1255.13 190.026 1280.5 208.471" stroke="url(#paint13_linear_1536_7594)"/>
<path d="M-3.20985 115.678C89.1316 79.6104 322.691 118.995 533.359 205.558C796.694 313.762 930.829 247.082 1030.1 208.647C1104.39 186.49 1256.91 203.305 1280.5 222.049" stroke="url(#paint14_linear_1536_7594)"/>
<path d="M-2.95874 122.775C89.7361 85.0243 324.348 128.008 537.405 218.609C803.725 331.861 932.419 253.642 1026.3 220.644C1102.13 199.28 1258.64 216.295 1280.5 235.331" stroke="url(#paint15_linear_1536_7594)"/>
<path d="M-2.71341 129.716C90.3267 90.3214 325.968 136.82 541.357 231.368C810.594 349.552 933.973 260.059 1022.6 232.373C1099.92 211.783 1260.34 228.994 1280.5 248.315" stroke="url(#paint16_linear_1536_7594)"/>
<defs>
<linearGradient id="paint0_linear_1536_7594" x1="-7.00024" y1="44.9526" x2="1280.5" y2="44.9526" gradientUnits="userSpaceOnUse">
<stop stop-color="#003BD1"/>
<stop offset="0.475962" stop-color="white"/>
<stop offset="1" stop-color="#62C2FF"/>
</linearGradient>
<linearGradient id="paint1_linear_1536_7594" x1="-2.47388" y1="212.978" x2="1280.5" y2="212.978" gradientUnits="userSpaceOnUse">
<stop stop-color="#003BD1"/>
<stop offset="0.475962" stop-color="white"/>
<stop offset="1" stop-color="#62C2FF"/>
</linearGradient>
<linearGradient id="paint2_linear_1536_7594" x1="-6.6739" y1="55.5023" x2="1280.5" y2="55.5023" gradientUnits="userSpaceOnUse">
<stop stop-color="#003BD1"/>
<stop offset="0.475962" stop-color="white"/>
<stop offset="1" stop-color="#62C2FF"/>
</linearGradient>
<linearGradient id="paint3_linear_1536_7594" x1="-6.35335" y1="66.264" x2="1280.5" y2="66.264" gradientUnits="userSpaceOnUse">
<stop stop-color="#003BD1"/>
<stop offset="0.475962" stop-color="white"/>
<stop offset="1" stop-color="#62C2FF"/>
</linearGradient>
<linearGradient id="paint4_linear_1536_7594" x1="-6.03859" y1="77.1259" x2="1280.5" y2="77.1259" gradientUnits="userSpaceOnUse">
<stop stop-color="#003BD1"/>
<stop offset="0.475962" stop-color="white"/>
<stop offset="1" stop-color="#62C2FF"/>
</linearGradient>
<linearGradient id="paint5_linear_1536_7594" x1="-5.72992" y1="88.0136" x2="1280.5" y2="88.0136" gradientUnits="userSpaceOnUse">
<stop stop-color="#003BD1"/>
<stop offset="0.475962" stop-color="white"/>
<stop offset="1" stop-color="#62C2FF"/>
</linearGradient>
<linearGradient id="paint6_linear_1536_7594" x1="-5.42679" y1="98.8847" x2="1280.5" y2="98.8847" gradientUnits="userSpaceOnUse">
<stop stop-color="#003BD1"/>
<stop offset="0.475962" stop-color="white"/>
<stop offset="1" stop-color="#62C2FF"/>
</linearGradient>
<linearGradient id="paint7_linear_1536_7594" x1="-5.12946" y1="109.717" x2="1280.5" y2="109.717" gradientUnits="userSpaceOnUse">
<stop stop-color="#003BD1"/>
<stop offset="0.475962" stop-color="white"/>
<stop offset="1" stop-color="#62C2FF"/>
</linearGradient>
<linearGradient id="paint8_linear_1536_7594" x1="-4.83788" y1="120.497" x2="1280.5" y2="120.497" gradientUnits="userSpaceOnUse">
<stop stop-color="#003BD1"/>
<stop offset="0.475962" stop-color="white"/>
<stop offset="1" stop-color="#62C2FF"/>
</linearGradient>
<linearGradient id="paint9_linear_1536_7594" x1="-4.55208" y1="131.216" x2="1280.5" y2="131.216" gradientUnits="userSpaceOnUse">
<stop stop-color="#003BD1"/>
<stop offset="0.475962" stop-color="white"/>
<stop offset="1" stop-color="#62C2FF"/>
</linearGradient>
<linearGradient id="paint10_linear_1536_7594" x1="-4.27208" y1="141.863" x2="1280.5" y2="141.863" gradientUnits="userSpaceOnUse">
<stop stop-color="#003BD1"/>
<stop offset="0.475962" stop-color="white"/>
<stop offset="1" stop-color="#62C2FF"/>
</linearGradient>
<linearGradient id="paint11_linear_1536_7594" x1="-3.99786" y1="152.422" x2="1280.5" y2="152.422" gradientUnits="userSpaceOnUse">
<stop stop-color="#003BD1"/>
<stop offset="0.475962" stop-color="white"/>
<stop offset="1" stop-color="#62C2FF"/>
</linearGradient>
<linearGradient id="paint12_linear_1536_7594" x1="-3.7294" y1="162.876" x2="1280.5" y2="162.876" gradientUnits="userSpaceOnUse">
<stop stop-color="#003BD1"/>
<stop offset="0.475962" stop-color="white"/>
<stop offset="1" stop-color="#62C2FF"/>
</linearGradient>
<linearGradient id="paint13_linear_1536_7594" x1="-3.46674" y1="173.207" x2="1280.5" y2="173.207" gradientUnits="userSpaceOnUse">
<stop stop-color="#003BD1"/>
<stop offset="0.475962" stop-color="white"/>
<stop offset="1" stop-color="#62C2FF"/>
</linearGradient>
<linearGradient id="paint14_linear_1536_7594" x1="-3.20985" y1="183.398" x2="1280.5" y2="183.398" gradientUnits="userSpaceOnUse">
<stop stop-color="#003BD1"/>
<stop offset="0.475962" stop-color="white"/>
<stop offset="1" stop-color="#62C2FF"/>
</linearGradient>
<linearGradient id="paint15_linear_1536_7594" x1="-2.95874" y1="193.433" x2="1280.5" y2="193.433" gradientUnits="userSpaceOnUse">
<stop stop-color="#003BD1"/>
<stop offset="0.475962" stop-color="white"/>
<stop offset="1" stop-color="#62C2FF"/>
</linearGradient>
<linearGradient id="paint16_linear_1536_7594" x1="-2.71341" y1="203.296" x2="1280.5" y2="203.296" gradientUnits="userSpaceOnUse">
<stop stop-color="#003BD1"/>
<stop offset="0.475962" stop-color="white"/>
<stop offset="1" stop-color="#62C2FF"/>
</linearGradient>
</defs>
</svg>
