<svg width="60" height="60" viewBox="0 0 60 60" fill="none" xmlns="http://www.w3.org/2000/svg">
<g clip-path="url(#clip0_1655_23)">
<path d="M29.6428 4.23717C30.4886 4.72533 30.7784 5.80674 30.2902 6.65244L25.9927 14.0957H21.9097L17.937 20.9766C17.9305 20.9766 17.9253 20.9818 17.9253 20.9883V20.9971L11.9409 31.3623V38.4346L17.9243 28.0703V34.2539C17.9243 34.2544 17.9248 34.2549 17.9253 34.2549V34.2412L17.9331 34.2549H24.8433L24.1079 32.9811C23.5556 32.0245 22.3324 31.6968 21.3758 32.249L17.9253 34.2412V28.0693L18.3267 27.374H31.1421V20.9766H33.1841L37.1782 25.2588V25.374C37.1782 26.4786 36.2828 27.374 35.1782 27.374H31.1421V32.2549C31.1421 33.3595 30.2467 34.2549 29.1421 34.2549H24.8433L36.2422 54.0001C37.012 55.3334 36.0497 57 34.5102 57H32.2196C31.5051 57 30.8449 56.6188 30.4876 56L17.9331 34.2549H17.9253V55C17.9253 56.1046 17.0299 57 15.9253 57H13.9409C12.8363 57 11.9409 56.1046 11.9409 55V38.4346L6.29943 48.2054C5.81124 49.051 4.73011 49.3407 3.88451 48.8527C3.03873 48.3645 2.74889 47.2831 3.23717 46.4374L11.9409 31.3623V16.1113C11.9409 15.0068 12.8363 14.1113 13.9409 14.1113H17.9175C17.9218 14.1113 17.9253 14.1078 17.9253 14.1035C17.9253 14.0992 17.9288 14.0957 17.9331 14.0957H21.9097L27.2279 4.88441C27.7161 4.03888 28.7972 3.74912 29.6428 4.23717ZM48.0288 36.8955V55C48.0288 56.1046 47.1334 57 46.0288 57H44.0444C42.9399 57 42.0444 56.1046 42.0444 55V30.4775L48.0288 36.8955ZM56.2284 41.4346C56.7746 42.0204 56.7427 42.938 56.1572 43.4844C55.5713 44.0312 54.653 43.9993 54.1065 43.4132L48.0288 36.8955V32.6406L56.2284 41.4346ZM48.0288 32.6406L42.0444 26.2236V16.1113C42.0444 15.0068 42.9399 14.1113 44.0444 14.1113H46.0288C47.1334 14.1113 48.0288 15.0068 48.0288 16.1113V32.6406ZM42.0444 26.2236V30.4775L37.1782 25.2588V21.0049L42.0444 26.2236ZM17.9253 28.0693L17.9243 28.0703V27.375C17.9243 27.3745 17.9248 27.374 17.9253 27.374V28.0693ZM18.3267 27.374H17.9253V20.9971L17.937 20.9766H22.02L18.3267 27.374ZM37.1519 20.9766C37.1664 20.9766 37.1782 20.9884 37.1782 21.0029V21.0049L37.1519 20.9766ZM37.1519 20.9766H33.1841L32.1539 19.8717C31.6075 19.2856 31.6396 18.3676 32.2257 17.8212C32.8116 17.2749 33.7295 17.307 34.276 17.8929L37.1519 20.9766ZM31.1421 20.9766H22.02L25.9927 14.0957H29.1421C30.2467 14.0957 31.1421 14.9911 31.1421 16.0957V20.9766Z" fill="black"/>
</g>
<defs>
<clipPath id="clip0_1655_23">
<rect width="60" height="60" fill="white"/>
</clipPath>
</defs>
</svg>
